<svg width="317" height="49" viewBox="0 0 317 49" fill="none" xmlns="http://www.w3.org/2000/svg"><path d="M16.6406 11.1719c0 .2474-.013.4622-.039.6445-.0261.1823-.0717.332-.1368.4492-.0651.1042-.1432.1823-.2343.2344-.0782.0521-.1628.0781-.2539.0781H6.71875v8.5938h8.75005c.0911 0 .1757.026.2539.0781.0911.0391.1692.1107.2343.2148.0651.1042.1107.2474.1368.4297.026.1693.039.3907.039.6641 0 .2474-.013.4622-.039.6445-.0261.1693-.0717.3125-.1368.4297-.0651.1042-.1432.1888-.2343.2539-.0782.0521-.1628.0781-.2539.0781H6.71875v10.5274c0 .0911-.02604.1823-.07813.2734-.05208.0782-.14322.1433-.27343.1953-.13021.0391-.29948.0717-.50781.0977-.20834.0391-.48178.0586-.82032.0586-.3125 0-.57942-.0195-.80078-.0586-.22135-.026-.39713-.0586-.52734-.0977-.13021-.052-.22136-.1171-.27344-.1953-.05208-.0911-.07812-.1823-.07812-.2734V11.0938c0-.5079.1302-.8594.39062-1.0547.27344-.20837.5599-.31254.85938-.31254H15.9766c.0911 0 .1757.02604.2539.07813.0911.05208.1692.13672.2343.25391.0651.1172.1107.2734.1368.4687.026.1823.039.3972.039.6446zm7.9688 23.3398c0 .1042-.0261.1953-.0782.2735-.052.0651-.1367.1237-.2539.1757-.1171.0521-.2799.0912-.4882.1172-.2084.0261-.4753.0391-.8008.0391-.3125 0-.5729-.013-.7813-.0391-.2083-.026-.3776-.0651-.5078-.1172-.1172-.052-.2018-.1106-.2539-.1757-.0391-.0782-.0586-.1693-.0586-.2735V16.9336c0-.0912.0195-.1758.0586-.2539.0521-.0781.1367-.1432.2539-.1953.1302-.0521.2995-.0912.5078-.1172.2084-.0261.4688-.0391.7813-.0391.3255 0 .5924.013.8008.0391.2083.026.3711.0651.4882.1172.1172.0521.2019.1172.2539.1953.0521.0781.0782.1627.0782.2539v17.5781zm.3711-23.5156c0 .7552-.1433 1.2695-.4297 1.543-.2865.2734-.8138.4101-1.582.4101-.7553 0-1.2761-.1302-1.5626-.3906-.2734-.2734-.4101-.7813-.4101-1.5234 0-.7553.1432-1.26958.4297-1.54301.2864-.27344.8138-.41016 1.582-.41016.7552 0 1.2695.13672 1.543.41016.2864.26041.4297.76171.4297 1.50391zm15.8593 7.0898c0 .2865-.0065.5274-.0195.7227-.013.1953-.0391.3516-.0781.4687-.0391.1042-.0912.1888-.1563.2539-.052.0521-.1302.0782-.2343.0782-.1042 0-.2344-.0261-.3907-.0782-.1432-.0651-.3125-.1236-.5078-.1757-.1823-.0651-.3906-.1237-.625-.1758-.2343-.0521-.4883-.0781-.7617-.0781-.3255 0-.6445.0651-.957.1953-.3125.1302-.6446.345-.9961.6445-.3386.2995-.6966.6966-1.0742 1.1914-.3776.4948-.7943 1.1003-1.25 1.8164v11.5625c0 .1042-.0261.1953-.0782.2735-.052.0651-.1367.1237-.2539.1757-.1172.0521-.2799.0912-.4882.1172-.2084.0261-.4753.0391-.8008.0391-.3125 0-.5729-.013-.7813-.0391-.2083-.026-.3776-.0651-.5078-.1172-.1172-.052-.2018-.1106-.2539-.1757-.0391-.0782-.0586-.1693-.0586-.2735V16.9336c0-.1042.0195-.1888.0586-.2539.0391-.0781.1172-.1432.2344-.1953.1172-.0651.2669-.1042.4492-.1172.1823-.0261.4232-.0391.7226-.0391.2865 0 .5209.013.7032.0391.1953.013.345.0521.4492.1172.1042.0521.1758.1172.2148.1953.0521.0651.0782.1497.0782.2539v2.5586c.4817-.7031.931-1.2761 1.3476-1.7188.4297-.4427.8334-.7877 1.211-1.0351.3776-.2604.7487-.4362 1.1132-.5274.3776-.1041.7552-.1562 1.1328-.1562.1693 0 .3581.013.5665.0391.2213.013.4492.0455.6835.0976.2344.0521.4428.1107.625.1758.1954.0651.3321.1302.4102.1953.0781.0651.1302.1302.1563.1953.026.0521.0455.1237.0585.2149.0261.0911.0391.2278.0391.4101.013.1693.0195.4037.0195.7031zm29.7461 16.4258c0 .1042-.026.1953-.0781.2735-.0521.0651-.1367.1237-.2539.1757-.1172.0521-.2799.0912-.4883.1172-.2083.0261-.4687.0391-.7812.0391-.3255 0-.5925-.013-.8008-.0391-.2083-.026-.3776-.0651-.5078-.1172-.1172-.052-.2018-.1106-.2539-.1757-.0521-.0782-.0781-.1693-.0781-.2735V23.8281c0-.7422-.0652-1.4192-.1954-2.0312-.1302-.612-.3385-1.1393-.625-1.5821-.2864-.4427-.651-.7812-1.0937-1.0156-.4427-.2344-.9636-.3515-1.5625-.3515-.7422 0-1.4909.2864-2.2461.8593-.7422.5729-1.5625 1.4128-2.4609 2.5196v12.2851c0 .1042-.0261.1953-.0782.2735-.0521.0651-.1432.1237-.2734.1757-.1172.0521-.28.0912-.4883.1172-.2083.0261-.4687.0391-.7812.0391-.2995 0-.5599-.013-.7813-.0391-.2083-.026-.3776-.0651-.5078-.1172-.1172-.052-.2018-.1106-.2539-.1757-.0391-.0782-.0586-.1693-.0586-.2735V23.8281c0-.7422-.0716-1.4192-.2148-2.0312-.1433-.612-.3581-1.1393-.6446-1.5821-.2864-.4427-.651-.7812-1.0937-1.0156-.4297-.2344-.944-.3515-1.543-.3515-.7422 0-1.4909.2864-2.2461.8593-.7552.5729-1.5755 1.4128-2.4609 2.5196v12.2851c0 .1042-.0261.1953-.0782.2735-.052.0651-.1367.1237-.2539.1757-.1171.0521-.2799.0912-.4882.1172-.2084.0261-.4753.0391-.8008.0391-.3125 0-.5729-.013-.7813-.0391-.2083-.026-.3776-.0651-.5078-.1172-.1172-.052-.2018-.1106-.2539-.1757-.0391-.0782-.0586-.1693-.0586-.2735V16.9336c0-.1042.0195-.1888.0586-.2539.0391-.0781.1172-.1432.2344-.1953.1172-.0651.2669-.1042.4492-.1172.1823-.0261.4232-.0391.7227-.0391.2864 0 .5208.013.7031.0391.1953.013.345.0521.4492.1172.1042.0521.1758.1172.2149.1953.052.0651.0781.1497.0781.2539v2.3242c.9896-1.1068 1.9466-1.914 2.8711-2.4219.9375-.5208 1.8815-.7812 2.832-.7812.7292 0 1.3802.0846 1.9531.2539.586.1693 1.1003.4102 1.543.7226.4427.2995.8203.6641 1.1328 1.0938.3125.4167.5729.8854.7813 1.4062.5859-.638 1.1393-1.1783 1.6601-1.621.5339-.4428 1.0417-.8008 1.5235-1.0743.4947-.2734.97-.4687 1.4257-.5859.4688-.1302.9375-.1953 1.4063-.1953 1.1328 0 2.0833.2018 2.8515.6055.7683.3906 1.3868.9179 1.8555 1.582.4818.664.8203 1.4453 1.0156 2.3437.2084.8855.3125 1.823.3125 2.8125v11.1133zm19.1211.0195c0 .1563-.0521.2735-.1562.3516-.1042.0781-.2474.1367-.4297.1758-.1823.0391-.4492.0586-.8008.0586-.3385 0-.612-.0195-.8203-.0586-.1953-.0391-.3385-.0977-.4297-.1758-.0911-.0781-.1367-.1953-.1367-.3516v-1.7578c-.7682.8204-1.6276 1.4584-2.5781 1.9141-.9375.4557-1.9336.6836-2.9883.6836-.9245 0-1.7643-.1237-2.5195-.3711-.7422-.2344-1.3803-.5794-1.9141-1.0352-.5208-.4557-.931-1.0156-1.2305-1.6796-.2864-.6641-.4297-1.4193-.4297-2.2657 0-.9896.2019-1.8489.6055-2.5781.4037-.7292.9831-1.3346 1.7383-1.8164s1.6797-.8398 2.7734-1.0742c1.0938-.2474 2.3242-.3711 3.6914-.3711h2.4219v-1.3672c0-.6771-.0716-1.276-.2148-1.7969-.1433-.5208-.3776-.9505-.7032-1.289-.3125-.3516-.7226-.612-1.2304-.7813-.5078-.1823-1.1328-.2734-1.875-.2734-.7943 0-1.5104.0976-2.1485.2929-.625.1823-1.1784.3907-1.6601.625-.4688.2214-.8659.4297-1.1914.625-.3125.1823-.5469.2735-.7032.2735-.1041 0-.1953-.0261-.2734-.0781-.0781-.0521-.1497-.1303-.2148-.2344-.0521-.1042-.0912-.2344-.1172-.3906-.0261-.1693-.0391-.3516-.0391-.5469 0-.3255.0195-.5794.0586-.7617.0521-.1954.1628-.3776.332-.5469.1823-.1693.4883-.3646.918-.5859.4297-.2344.9245-.4428 1.4844-.625.5599-.1954 1.1719-.3516 1.8359-.4688.6641-.1302 1.3347-.1953 2.0117-.1953 1.2631 0 2.3373.1432 3.2227.4297.8854.2864 1.6016.7096 2.1484 1.2695.5469.5469.944 1.2305 1.1914 2.0508.2474.8203.3711 1.7773.3711 2.8711v11.8554zm-3.2031-8.0273H83.75c-.8854 0-1.6536.0781-2.3047.2344-.651.1432-1.1914.3646-1.6211.664-.4297.2865-.7487.6381-.957 1.0547-.1953.4037-.293.8724-.293 1.4063 0 .9114.2865 1.6406.8594 2.1875.5859.5338 1.3997.8008 2.4414.8008.8464 0 1.6276-.2149 2.3438-.6446.7291-.4297 1.4908-1.0872 2.2851-1.9726v-3.7305zm42.7931-9.6094c0 .0912-.013.2019-.039.3321-.026.1302-.072.2929-.137.4882l-5.176 16.6993c-.039.1432-.104.2604-.195.3515-.078.0912-.195.1628-.352.2149-.143.0521-.345.0846-.605.0976-.26.0261-.586.0391-.977.0391-.403 0-.742-.013-1.015-.0391-.274-.026-.495-.0651-.664-.1172-.157-.052-.274-.1237-.352-.2148-.078-.0912-.137-.2018-.176-.332l-3.691-12.7539-.039-.1758-.039.1758-3.418 12.7539c-.039.1432-.104.2604-.195.3515-.079.0912-.202.1628-.372.2149-.169.0521-.39.0846-.664.0976-.26.0261-.586.0391-.976.0391-.404 0-.736-.013-.996-.0391-.248-.026-.456-.0651-.625-.1172-.156-.052-.274-.1237-.352-.2148-.078-.0912-.137-.2018-.176-.332l-5.136-16.6993c-.065-.1953-.111-.358-.137-.4882-.026-.1302-.039-.2409-.039-.3321 0-.1172.026-.2083.078-.2734.052-.0781.137-.1367.254-.1758.13-.0521.299-.0846.508-.0976.208-.0131.462-.0196.761-.0196.365 0 .658.013.879.0391.222.013.391.0456.508.0976.117.0391.202.1042.254.1954.052.0781.098.1757.137.2929l4.238 14.4922.039.1758.039-.1758 3.887-14.4922c.026-.1172.065-.2148.117-.2929.065-.0912.156-.1563.274-.1954.117-.052.273-.0846.468-.0976.209-.0261.476-.0391.801-.0391.313 0 .566.013.762.0391.208.013.371.0456.488.0976.117.0391.202.0977.254.1758.052.0782.091.1693.117.2735l4.199 14.5312.039.1758.02-.1758 4.18-14.4922c.026-.1172.065-.2148.117-.2929.065-.0912.156-.1563.273-.1954.131-.052.3-.0846.508-.0976.221-.0261.501-.0391.84-.0391.312 0 .56.0065.742.0196.195.013.345.0455.449.0976.118.0521.196.1107.235.1758.052.0651.078.1562.078.2734zM141.543 35l-2.344 6.4648c-.078.2084-.28.3646-.605.4688-.313.1172-.795.1758-1.446.1758-.338 0-.612-.0196-.82-.0586-.208-.0261-.371-.0781-.488-.1563-.104-.0781-.163-.1823-.176-.3125-.013-.1302.02-.2864.098-.4687L138.184 35c-.118-.0521-.228-.1367-.332-.2539-.105-.1172-.176-.2409-.215-.3711l-6.27-16.7969c-.104-.2734-.156-.4883-.156-.6445 0-.1563.052-.28.156-.3711.104-.0911.274-.1497.508-.1758.234-.039.547-.0586.937-.0586.391 0 .697.013.918.0391.222.013.398.0456.528.0976.13.0521.221.1303.273.2344.065.0912.13.2214.196.3906l5.019 14.1016h.059l4.843-14.1797c.079-.2474.17-.4036.274-.4687.117-.0782.286-.1302.508-.1563.221-.039.54-.0586.957-.0586.364 0 .664.0196.898.0586.235.0261.404.0847.508.1758.117.0911.176.2148.176.3711 0 .1562-.039.3516-.117.5859L141.543 35zm24.551-.5078c0 .1042-.026.1953-.078.2734-.052.0782-.144.1433-.274.1953-.117.0521-.286.0912-.508.1172-.221.0261-.501.0391-.839.0391-.352 0-.645-.013-.879-.0391-.222-.013-.411-.039-.567-.0781-.156-.0521-.286-.1172-.39-.1953-.092-.0912-.176-.1953-.254-.3125l-7.422-9.7266v9.7461c0 .1042-.026.1953-.078.2735-.052.0651-.137.1237-.254.1757-.117.0521-.28.0912-.489.1172-.208.0261-.475.0391-.8.0391-.313 0-.573-.013-.782-.0391-.208-.026-.377-.0651-.507-.1172-.118-.052-.202-.1106-.254-.1757-.039-.0782-.059-.1693-.059-.2735V8.41797c0-.10417.02-.19531.059-.27344.052-.07812.136-.14323.254-.19531.13-.05208.299-.09115.507-.11719.209-.02604.469-.03906.782-.03906.325 0 .592.01302.8.03906.209.02604.372.06511.489.11719.117.05208.202.11719.254.19531.052.07813.078.16927.078.27344V24.3164l6.64-7.3047c.105-.1302.215-.2344.332-.3125.118-.0911.254-.1627.411-.2148.169-.0651.364-.1042.586-.1172.221-.0261.488-.0391.8-.0391.326 0 .599.013.821.0391.221.013.397.0456.527.0976.143.0391.241.0977.293.1758.065.0651.098.1563.098.2735 0 .1562-.046.3125-.137.4687-.078.1563-.215.3386-.41.5469l-6.367 6.3672 7.148 9.2773c.169.2214.286.4037.352.5469.078.1302.117.2539.117.3711zm18.75-8.9649c0 1.4323-.189 2.7539-.567 3.9649-.377 1.1979-.944 2.2331-1.699 3.1055-.742.8724-1.68 1.5559-2.812 2.0507-1.12.4818-2.422.7227-3.907.7227-1.445 0-2.708-.2149-3.789-.6445-1.067-.4297-1.959-1.0547-2.675-1.875-.717-.8204-1.25-1.8164-1.602-2.9883-.352-1.1719-.527-2.5-.527-3.9844 0-1.4323.182-2.7474.546-3.9453.378-1.2109.938-2.2526 1.68-3.125.755-.8724 1.693-1.5495 2.813-2.0313 1.119-.4817 2.428-.7226 3.925-.7226 1.446 0 2.702.2148 3.77.6445 1.081.4297 1.979 1.0547 2.695 1.875.716.8203 1.25 1.8164 1.602 2.9883.364 1.1719.547 2.4935.547 3.9648zm-3.399.2149c0-.9505-.091-1.849-.273-2.6953-.169-.8464-.456-1.5886-.86-2.2266-.403-.638-.95-1.1393-1.64-1.5039-.69-.3776-1.55-.5664-2.578-.5664-.951 0-1.771.1693-2.461.5078-.677.3386-1.237.8203-1.68 1.4453-.443.612-.775 1.3412-.996 2.1875-.208.8464-.312 1.7709-.312 2.7735 0 .9635.084 1.8685.253 2.7148.183.8464.476 1.5885.879 2.2266.417.625.97 1.1263 1.661 1.5039.69.3646 1.549.5468 2.578.5468.937 0 1.751-.1692 2.441-.5078.69-.3385 1.257-.8138 1.699-1.4257.443-.612.768-1.3412.977-2.1875.208-.8464.312-1.7774.312-2.793zm23.282 8.7695c0 .1042-.026.1953-.079.2735-.052.0651-.136.1237-.253.1757-.118.0521-.28.0912-.489.1172-.208.0261-.468.0391-.781.0391-.326 0-.592-.013-.801-.0391-.208-.026-.371-.0651-.488-.1172-.117-.052-.202-.1106-.254-.1757-.052-.0782-.078-.1693-.078-.2735V24.2188c0-1.0027-.078-1.8099-.234-2.4219-.157-.612-.385-1.1393-.684-1.5821-.3-.4427-.69-.7812-1.172-1.0156-.469-.2344-1.016-.3515-1.641-.3515-.807 0-1.614.2864-2.421.8593-.808.5729-1.654 1.4128-2.54 2.5196v12.2851c0 .1042-.026.1953-.078.2735-.052.0651-.136.1237-.254.1757-.117.0521-.279.0912-.488.1172-.208.0261-.475.0391-.801.0391-.312 0-.573-.013-.781-.0391-.208-.026-.377-.0651-.508-.1172-.117-.052-.201-.1106-.254-.1757-.039-.0782-.058-.1693-.058-.2735V16.9336c0-.1042.019-.1888.058-.2539.04-.0781.118-.1432.235-.1953.117-.0651.267-.1042.449-.1172.182-.0261.423-.0391.723-.0391.286 0 .521.013.703.0391.195.013.345.0521.449.1172.104.0521.176.1172.215.1953.052.0651.078.1497.078.2539v2.3242c.99-1.1068 1.973-1.914 2.949-2.4219.99-.5208 1.986-.7812 2.989-.7812 1.171 0 2.154.2018 2.949.6055.807.3906 1.458.9179 1.953 1.582.495.664.846 1.4453 1.055 2.3437.221.8855.332 1.9532.332 3.2032v10.7226zm19.121.0195c0 .1563-.052.2735-.157.3516-.104.0781-.247.1367-.429.1758-.183.0391-.45.0586-.801.0586-.339 0-.612-.0195-.82-.0586-.196-.0391-.339-.0977-.43-.1758-.091-.0781-.137-.1953-.137-.3516v-1.7578c-.768.8204-1.627 1.4584-2.578 1.9141-.937.4557-1.934.6836-2.988.6836-.925 0-1.765-.1237-2.52-.3711-.742-.2344-1.38-.5794-1.914-1.0352-.521-.4557-.931-1.0156-1.23-1.6796-.287-.6641-.43-1.4193-.43-2.2657 0-.9896.202-1.8489.606-2.5781.403-.7292.983-1.3346 1.738-1.8164s1.68-.8398 2.773-1.0742c1.094-.2474 2.324-.3711 3.692-.3711h2.422v-1.3672c0-.6771-.072-1.276-.215-1.7969-.144-.5208-.378-.9505-.703-1.289-.313-.3516-.723-.612-1.231-.7813-.508-.1823-1.133-.2734-1.875-.2734-.794 0-1.51.0976-2.148.2929-.625.1823-1.179.3907-1.661.625-.468.2214-.865.4297-1.191.625-.312.1823-.547.2735-.703.2735-.104 0-.195-.0261-.273-.0781-.079-.0521-.15-.1303-.215-.2344-.052-.1042-.091-.2344-.118-.3906-.026-.1693-.039-.3516-.039-.5469 0-.3255.02-.5794.059-.7617.052-.1954.163-.3776.332-.5469.182-.1693.488-.3646.918-.5859.43-.2344.925-.4428 1.484-.625.56-.1954 1.172-.3516 1.836-.4688.664-.1302 1.335-.1953 2.012-.1953 1.263 0 2.337.1432 3.223.4297.885.2864 1.601.7096 2.148 1.2695.547.5469.944 1.2305 1.192 2.0508.247.8203.371 1.7773.371 2.8711v11.8554zm-3.203-8.0273h-2.754c-.886 0-1.654.0781-2.305.2344-.651.1432-1.191.3646-1.621.664-.43.2865-.749.6381-.957 1.0547-.196.4037-.293.8724-.293 1.4063 0 .9114.286 1.6406.859 2.1875.586.5338 1.4.8008 2.442.8008.846 0 1.627-.2149 2.343-.6446.73-.4297 1.491-1.0872 2.286-1.9726v-3.7305zm33.457-9.6094c0 .0912-.013.2019-.04.3321-.026.1302-.071.2929-.136.4882l-5.176 16.6993c-.039.1432-.104.2604-.195.3515-.078.0912-.196.1628-.352.2149-.143.0521-.345.0846-.605.0976-.261.0261-.586.0391-.977.0391-.404 0-.742-.013-1.016-.0391-.273-.026-.494-.0651-.664-.1172-.156-.052-.273-.1237-.351-.2148-.078-.0912-.137-.2018-.176-.332l-3.691-12.7539-.039-.1758-.039.1758-3.418 12.7539c-.039.1432-.105.2604-.196.3515-.078.0912-.202.1628-.371.2149-.169.0521-.39.0846-.664.0976-.26.0261-.586.0391-.976.0391-.404 0-.736-.013-.997-.0391-.247-.026-.455-.0651-.625-.1172-.156-.052-.273-.1237-.351-.2148-.078-.0912-.137-.2018-.176-.332l-5.137-16.6993c-.065-.1953-.11-.358-.136-.4882-.026-.1302-.039-.2409-.039-.3321 0-.1172.026-.2083.078-.2734.052-.0781.136-.1367.254-.1758.13-.0521.299-.0846.507-.0976.209-.0131.463-.0196.762-.0196.365 0 .658.013.879.0391.221.013.391.0456.508.0976.117.0391.202.1042.254.1954.052.0781.097.1757.137.2929l4.238 14.4922.039.1758.039-.1758 3.887-14.4922c.026-.1172.065-.2148.117-.2929.065-.0912.156-.1563.273-.1954.117-.052.274-.0846.469-.0976.208-.0261.475-.0391.801-.0391.312 0 .566.013.761.0391.209.013.372.0456.489.0976.117.0391.202.0977.254.1758.052.0782.091.1693.117.2735l4.199 14.5312.039.1758.02-.1758 4.179-14.4922c.026-.1172.065-.2148.118-.2929.065-.0912.156-.1563.273-.1954.13-.052.299-.0846.508-.0976.221-.0261.501-.0391.84-.0391.312 0 .56.0065.742.0196.195.013.345.0455.449.0976.117.0521.195.1107.234.1758.053.0651.079.1562.079.2734zm16.25 14.9414c0 .2214-.007.4167-.02.586-.013.1562-.039.2929-.078.4101-.026.1042-.065.2019-.117.293-.039.0781-.144.2018-.313.3711-.156.1562-.429.3581-.82.6055-.391.2343-.833.4492-1.328.6445-.482.1823-1.009.332-1.582.4492-.573.1172-1.166.1758-1.778.1758-1.263 0-2.382-.2083-3.359-.625-.977-.4167-1.797-1.0221-2.461-1.8164-.651-.8073-1.152-1.7904-1.504-2.9492-.338-1.1719-.508-2.5196-.508-4.043 0-1.7318.209-3.2161.625-4.4531.43-1.25 1.009-2.2722 1.739-3.0664.742-.7943 1.608-1.3802 2.597-1.7578 1.003-.3907 2.084-.586 3.243-.586.559 0 1.1.0521 1.621.1563.533.1041 1.022.2409 1.464.4101.443.1693.834.3646 1.172.586.352.2213.606.4101.762.5664.156.1562.26.2799.313.3711.065.0911.117.2018.156.332.039.1172.065.2539.078.4101.013.1563.019.3516.019.586 0 .5078-.058.8659-.175 1.0742-.118.1953-.261.293-.43.293-.195 0-.423-.1042-.684-.3125-.247-.2214-.566-.4623-.957-.7227-.39-.2604-.866-.4948-1.425-.7031-.547-.2214-1.198-.332-1.954-.332-1.549 0-2.74.5989-3.574 1.7968-.82 1.1849-1.23 2.9102-1.23 5.1758 0 1.1328.104 2.1289.312 2.9883.222.8464.541 1.556.957 2.1289.417.5729.925 1.0026 1.524 1.2891.612.2734 1.308.4101 2.09.4101.742 0 1.393-.1172 1.953-.3515.56-.2344 1.041-.4883 1.445-.7618.417-.2864.762-.5403 1.035-.7617.287-.2343.508-.3515.664-.3515.091 0 .169.026.235.0781.065.0521.117.1432.156.2734.052.1172.084.2735.097.4688.027.1823.04.4036.04.664zm15.488 1.7969c0 .2474-.02.4623-.059.6445-.039.1693-.084.3125-.136.4297-.053.1042-.124.1823-.215.2344-.091.0391-.189.0586-.293.0586h-10.821c-.273 0-.501-.0911-.683-.2734-.169-.1823-.254-.4883-.254-.918v-.6641c0-.1823.013-.345.039-.4883.026-.1432.065-.2864.117-.4296.052-.1433.124-.293.215-.4493.091-.1692.202-.358.332-.5664l7.754-12.0703h-7.52c-.208 0-.377-.1041-.507-.3125-.118-.2213-.176-.5729-.176-1.0547 0-.2343.013-.4362.039-.6054.026-.1823.065-.3256.117-.4297.065-.1172.137-.1953.215-.2344.091-.0521.195-.0781.312-.0781h10.079c.143 0 .266.0195.371.0586.117.039.214.1041.293.1953.078.0911.136.2083.175.3515.052.1433.078.3256.078.5469v.625c0 .1823-.013.3516-.039.5078-.026.1563-.065.3125-.117.4688-.052.1432-.123.2995-.215.4687-.091.1693-.201.3581-.332.5664l-7.714 12.0704h8.242c.104 0 .195.026.273.0781.091.039.163.1107.215.2148.065.1042.117.2474.156.4297.039.1693.059.3776.059.625zm17.187.8984c0 .1563-.052.2735-.156.3516-.104.0781-.247.1367-.43.1758-.182.0391-.449.0586-.8.0586-.339 0-.612-.0195-.821-.0586-.195-.0391-.338-.0977-.429-.1758-.092-.0781-.137-.1953-.137-.3516v-1.7578c-.768.8204-1.628 1.4584-2.578 1.9141-.938.4557-1.934.6836-2.988.6836-.925 0-1.765-.1237-2.52-.3711-.742-.2344-1.38-.5794-1.914-1.0352-.521-.4557-.931-1.0156-1.231-1.6796-.286-.6641-.429-1.4193-.429-2.2657 0-.9896.202-1.8489.605-2.5781.404-.7292.983-1.3346 1.739-1.8164.755-.4818 1.679-.8398 2.773-1.0742 1.094-.2474 2.324-.3711 3.691-.3711h2.422v-1.3672c0-.6771-.071-1.276-.215-1.7969-.143-.5208-.377-.9505-.703-1.289-.312-.3516-.722-.612-1.23-.7813-.508-.1823-1.133-.2734-1.875-.2734-.794 0-1.511.0976-2.149.2929-.625.1823-1.178.3907-1.66.625-.469.2214-.866.4297-1.191.625-.313.1823-.547.2735-.703.2735-.105 0-.196-.0261-.274-.0781-.078-.0521-.15-.1303-.215-.2344-.052-.1042-.091-.2344-.117-.3906-.026-.1693-.039-.3516-.039-.5469 0-.3255.02-.5794.059-.7617.052-.1954.162-.3776.332-.5469.182-.1693.488-.3646.918-.5859.429-.2344.924-.4428 1.484-.625.56-.1954 1.172-.3516 1.836-.4688.664-.1302 1.335-.1953 2.012-.1953 1.263 0 2.337.1432 3.222.4297.886.2864 1.602.7096 2.149 1.2695.547.5469.944 1.2305 1.191 2.0508.248.8203.371 1.7773.371 2.8711v11.8554zm-3.203-8.0273h-2.754c-.885 0-1.653.0781-2.304.2344-.651.1432-1.192.3646-1.621.664-.43.2865-.749.6381-.957 1.0547-.196.4037-.293.8724-.293 1.4063 0 .9114.286 1.6406.859 2.1875.586.5338 1.4.8008 2.441.8008.847 0 1.628-.2149 2.344-.6446.729-.4297 1.491-1.0872 2.285-1.9726v-3.7305zm13.906-7.1289c0 .4167-.032.7682-.097 1.0547-.052.2864-.163.5208-.332.7031-.156.1693-.365.293-.625.3711-.261.0651-.593.0977-.996.0977-.417 0-.756-.0326-1.016-.0977-.26-.0781-.469-.2018-.625-.3711-.156-.1823-.267-.4167-.332-.7031-.052-.2865-.078-.638-.078-1.0547 0-.4427.026-.8073.078-1.0938.065-.2994.176-.5338.332-.7031.156-.1823.365-.306.625-.3711.26-.0781.599-.1172 1.016-.1172.403 0 .735.0391.996.1172.26.0651.469.1888.625.3711.169.1693.28.4037.332.7031.065.2865.097.6511.097 1.0938zm0 13.5547c0 .4297-.032.7877-.097 1.0742-.052.2865-.163.5208-.332.7031-.156.1693-.365.2865-.625.3516-.261.0781-.593.1172-.996.1172-.417 0-.756-.0391-1.016-.1172-.26-.0651-.469-.1823-.625-.3516-.156-.1823-.267-.4166-.332-.7031-.052-.2865-.078-.6445-.078-1.0742 0-.4297.026-.7878.078-1.0742.065-.2995.176-.5339.332-.7032.156-.1692.365-.2929.625-.3711.26-.0781.599-.1171 1.016-.1171.403 0 .735.039.996.1171.26.0782.469.2019.625.3711.169.1693.28.4037.332.7032.065.2864.097.6445.097 1.0742z" fill="#488538"/></svg>