<svg width="59" height="49" viewBox="0 0 59 49" fill="none" xmlns="http://www.w3.org/2000/svg"><path d="M22.793 21.9922c0 2.1875-.28 4.1016-.8399 5.7422-.5599 1.6276-1.3802 2.9817-2.4609 4.0625-1.0677 1.0677-2.3828 1.8685-3.9453 2.4023-1.5625.5339-3.4245.8008-5.58596.8008H4.60938c-.29948 0-.58594-.0977-.85938-.293-.26042-.2083-.39062-.5664-.39062-1.0742v-22.539c0-.5079.1302-.8594.39062-1.0547.27344-.20837.5599-.31254.85938-.31254H10.332c2.1875 0 4.0365.28644 5.5469.85934 1.5104.5599 2.7734 1.3737 3.7891 2.4414 1.0286 1.0547 1.8034 2.3373 2.3242 3.8477.5338 1.5104.8008 3.2161.8008 5.1172zm-3.5352.1367c0-1.3672-.1693-2.6367-.5078-3.8086-.3385-1.1849-.8724-2.207-1.6016-3.0664-.7161-.8594-1.6276-1.5299-2.7343-2.0117-1.1068-.4818-2.5326-.7227-4.2774-.7227H6.71875v19.668h3.45705c1.6146 0 2.9752-.2018 4.082-.6055 1.1068-.4036 2.0313-1.0221 2.7734-1.8554.7422-.8334 1.2956-1.875 1.6602-3.125.3776-1.2631.5664-2.7539.5664-4.4727zm36.1914 12.3633c0 .1042-.026.1953-.0781.2734-.0521.0782-.1432.1433-.2734.1953-.1303.0391-.2995.0717-.5079.0977-.1953.0391-.4557.0586-.7812.0586-.2995 0-.5599-.0195-.7813-.0586-.2083-.026-.3776-.0586-.5078-.0977-.1172-.052-.2018-.1171-.2539-.1953-.0521-.0781-.0781-.1692-.0781-.2734V12.4805h-.0391l-9.0039 22.1093c-.039.0912-.0976.1693-.1757.2344-.0652.0651-.1693.1237-.3126.1758-.1302.0391-.2929.0651-.4882.0781-.1823.0261-.4037.0391-.6641.0391-.2734 0-.5078-.013-.7031-.0391-.1953-.026-.3581-.0586-.4883-.0976-.1302-.0521-.2344-.1107-.3125-.1758-.0651-.0651-.1107-.1367-.1367-.2149L31.25 12.4805h-.0195v22.0117c0 .1042-.0261.1953-.0782.2734-.052.0782-.1432.1433-.2734.1953-.1302.0391-.2995.0717-.5078.0977-.2083.0391-.4753.0586-.8008.0586-.3125 0-.5729-.0195-.7812-.0586-.2084-.026-.3776-.0586-.5079-.0977-.1171-.052-.2018-.1171-.2539-.1953-.039-.0781-.0585-.1692-.0585-.2734V11.25c0-.5469.1432-.9375.4296-1.1719.2865-.23435.6055-.35154.9571-.35154h2.0312c.4167 0 .7813.03906 1.0938.11719.3125.07813.5859.20185.8203.37105.2344.1693.4297.3842.5859.6446.1563.2604.293.5664.4102.9179l7.3242 18.3008h.0977l7.6171-18.2422c.1433-.3906.2995-.7226.4688-.9961.1693-.2734.3515-.4882.5469-.6445.2083-.1693.4362-.28645.6836-.35155.2474-.07813.5338-.11719.8593-.11719h2.1289c.1954 0 .3776.03255.5469.09766.1823.05208.332.14323.4492.27348.1302.1171.2344.2734.3125.4687.0782.1823.1172.4102.1172.6836v23.2422z" fill="#fff"/></svg>