<svg width="61" height="31" viewBox="0 0 61 31" fill="none" xmlns="http://www.w3.org/2000/svg"><path d="M10.2905 21.0845c0 .1627-.0081.3011-.0244.415-.0163.1058-.0447.1994-.0854.2808-.0326.0732-.0773.1302-.1343.1709-.04884.0325-.10988.0488-.18312.0488H2.88086c-.18718 0-.36621-.061-.53711-.1831-.16276-.1302-.24414-.354-.24414-.6714V6.52148c0-.0651.01628-.12207.04883-.17089.03255-.04883.08952-.08545.1709-.10987.08138-.03255.19124-.05696.32959-.07324.13834-.02441.30517-.03662.50048-.03662.20345 0 .37028.01221.50049.03662.13835.01628.24821.04069.32959.07324.08138.02442.13835.06104.1709.10987.03255.04882.04883.10579.04883.17089V20.1812h5.66406c.07324 0 .13428.0203.18312.061.057.0325.1017.0854.1343.1587.0407.0651.0691.1546.0854.2685.0163.114.0244.2523.0244.4151zm12.3169-5.0049c0 .8952-.118 1.7212-.354 2.478-.236.7487-.59 1.3957-1.062 1.9409-.4639.5453-1.0498.9725-1.7578 1.2818-.6999.3011-1.5137.4516-2.4414.4516-.9033 0-1.6927-.1342-2.3682-.4028-.6673-.2686-1.2247-.6592-1.6723-1.1719-.4476-.5127-.7813-1.1352-1.001-1.8676-.2197-.7325-.3296-1.5625-.3296-2.4903 0-.8952.1139-1.7171.3418-2.4658.236-.7568.5859-1.4079 1.0498-1.9531.472-.5453 1.0579-.9685 1.7578-1.2696.6999-.3011 1.5177-.4516 2.4536-.4516.9033 0 1.6887.1343 2.356.4028.6754.2686 1.237.6592 1.6845 1.1719.4476.5127.7813 1.1352 1.001 1.8677.2279.7324.3418 1.5584.3418 2.478zm-2.124.1343c0-.5941-.057-1.1556-.1709-1.6846-.1058-.529-.2848-.9928-.5371-1.3916-.2523-.3988-.5941-.7121-1.0254-.9399-.4313-.236-.9684-.354-1.6113-.354-.5941 0-1.1068.1057-1.5381.3173-.4232.2116-.7731.5127-1.0498.9034-.2767.3824-.4842.8382-.6226 1.3671-.1302.529-.1953 1.1068-.1953 1.7334 0 .6023.0529 1.1678.1587 1.6968.1139.529.297.9929.5493 1.3916.2604.3906.6063.704 1.0376.94.4313.2278.9684.3418 1.6113.3418.586 0 1.0946-.1058 1.5259-.3174s.7853-.5087 1.062-.8911c.2767-.3825.4802-.8383.6104-1.3672.1302-.529.1953-1.1109.1953-1.7456zm14.27-5.0049c0 .2848-.0407.4923-.1221.6225-.0732.1221-.1709.1831-.2929.1831h-1.5747c.2848.293.4842.6185.5981.9766.1139.3499.1709.7162.1709 1.0986 0 .6348-.1017 1.1963-.3052 1.6846-.2034.4883-.4964.9033-.8789 1.2451-.3743.3337-.8219.59-1.3427.7691-.5209.179-1.0987.2685-1.7334.2685-.4476 0-.8749-.0569-1.2818-.1709-.3987-.122-.708-.2726-.9277-.4516-.1465.1465-.2686.3133-.3662.5005-.0895.1871-.1343.4028-.1343.6469 0 .2849.1302.5209.3906.708.2686.1872.6226.2889 1.062.3052l2.8687.1221c.5452.0163 1.0457.0936 1.5015.2319.4557.1302.8504.3215 1.184.5737.3337.2442.5941.5494.7813.9156.1872.358.2807.7772.2807 1.2573 0 .5046-.1057.9847-.3173 1.4404-.2116.4558-.5371.8545-.9766 1.1963-.4313.35-.9847.6226-1.6602.8179-.6754.2034-1.4729.3052-2.3925.3052-.8871 0-1.6439-.0773-2.2705-.232-.6185-.1465-1.1272-.3499-1.5259-.6103-.3988-.2604-.6877-.5737-.8667-.94-.1791-.358-.2686-.7487-.2686-1.1718 0-.2686.0326-.529.0977-.7813.0651-.2523.1627-.4923.293-.7202.1383-.2279.3051-.4435.5004-.647.2035-.2116.4354-.4191.6958-.6225-.3987-.2035-.6958-.4598-.8911-.7691-.1871-.3092-.2807-.6429-.2807-1.001 0-.4964.1017-.9399.3051-1.3305.2035-.3906.4558-.7406.7569-1.0498-.2523-.3011-.4517-.6389-.5982-1.0132-.1465-.3825-.2197-.8423-.2197-1.3794 0-.6266.1058-1.1882.3174-1.6846.2116-.4964.5045-.9155.8789-1.2573.3743-.3418.8219-.6022 1.3428-.7812.5289-.1872 1.1027-.2808 1.7212-.2808.3336 0 .6429.0203.9277.061.293.0326.5656.0814.8179.1465h3.3203c.1383 0 .2401.0692.3052.2075.0732.1302.1098.3337.1098.6104zm-3.1494 2.8931c0-.7487-.2075-1.3306-.6226-1.7457-.4069-.4231-.9887-.6347-1.7456-.6347-.3906 0-.7324.0651-1.0254.1953-.2848.1302-.5249.3092-.7202.5371-.1871.2279-.3296.4924-.4272.7935-.0895.2929-.1343.6022-.1343.9277 0 .7243.2035 1.2939.6104 1.709.415.415.9928.6225 1.7334.6225.3987 0 .7446-.061 1.0376-.1831.2929-.1302.533-.3051.7202-.5249.1953-.2278.3377-.4883.4272-.7812.0977-.293.1465-.5982.1465-.9155zm1.0132 8.7036c0-.472-.1953-.8342-.586-1.0865-.3824-.2604-.9033-.3987-1.5624-.415l-2.8443-.0977c-.2604.2035-.4761.3988-.647.586-.1627.179-.2929.3499-.3906.5127-.0976.1709-.1668.3377-.2075.5005-.0326.1627-.0488.3296-.0488.5005 0 .5289.2685.9277.8056 1.1962.5371.2767 1.2858.4151 2.2461.4151.6104 0 1.119-.0611 1.5259-.1831.415-.114.7487-.2686 1.001-.4639.2523-.1953.4313-.4191.5371-.6714.1139-.2523.1709-.5167.1709-.7934zm12.4023-1.1109c0 .0651-.0162.1221-.0488.1709-.0325.0407-.0854.0773-.1587.1099-.0732.0325-.175.057-.3052.0732-.1302.0163-.297.0244-.5005.0244-.1953 0-.358-.0081-.4882-.0244-.1302-.0162-.236-.0407-.3174-.0732-.0733-.0326-.1262-.0692-.1587-.1099-.0244-.0488-.0366-.1058-.0366-.1709V10.7085c0-.057.0122-.1099.0366-.1587.0325-.0488.0854-.0895.1587-.1221.0814-.0325.1872-.0569.3174-.0732.1302-.0163.2929-.0244.4882-.0244.2035 0 .3703.0081.5005.0244.1302.0163.232.0407.3052.0732.0733.0326.1262.0733.1587.1221.0326.0488.0488.1017.0488.1587v10.9863zm.232-14.69724c0 .472-.0896.79346-.2686.96435-.179.1709-.5086.25635-.9888.25635-.472 0-.7975-.08138-.9765-.24414-.1709-.1709-.2564-.48828-.2564-.95215 0-.472.0895-.79345.2686-.96435.179-.1709.5086-.25635.9888-.25635.472 0 .7934.08545.9643.25635.179.16276.2686.47607.2686.93994zM58.2031 21.6948c0 .0651-.0163.1221-.0488.1709-.0326.0407-.0855.0773-.1587.1099-.0732.0325-.175.057-.3052.0732-.1302.0163-.2929.0244-.4883.0244-.2034 0-.3702-.0081-.5004-.0244-.1302-.0162-.232-.0407-.3052-.0732-.0733-.0326-.1262-.0692-.1587-.1099-.0326-.0488-.0488-.1058-.0488-.1709v-6.4331c0-.6266-.0489-1.1312-.1465-1.5137-.0977-.3824-.2401-.712-.4273-.9887-.1871-.2767-.4313-.4883-.7324-.6348-.293-.1465-.6348-.2197-1.0254-.2197-.5045 0-1.0091.179-1.5136.5371-.5046.3581-1.0336.883-1.587 1.5747v7.6782c0 .0651-.0162.1221-.0488.1709-.0325.0407-.0854.0773-.1587.1099-.0732.0325-.175.057-.3052.0732-.1302.0163-.297.0244-.5004.0244-.1954 0-.3581-.0081-.4883-.0244-.1302-.0162-.236-.0407-.3174-.0732-.0733-.0326-.1262-.0692-.1587-.1099-.0244-.0488-.0366-.1058-.0366-.1709V10.7085c0-.0651.0122-.118.0366-.1587.0244-.0488.0732-.0895.1465-.1221.0732-.0407.1668-.0651.2807-.0732.114-.0163.2645-.0244.4517-.0244.179 0 .3255.0081.4395.0244.122.0081.2156.0325.2807.0732.0651.0326.1099.0733.1343.1221.0325.0407.0488.0936.0488.1587v1.4526c.6185-.6917 1.2329-1.1963 1.8433-1.5136.6185-.3256 1.241-.4883 1.8677-.4883.7324 0 1.3468.1261 1.8432.3784.5046.2441.9115.5737 1.2207.9888.3093.415.529.9033.6592 1.4648.1384.5534.2075 1.2207.2075 2.002v6.7016z" fill="#fff"/></svg>